<svg viewBox="15.7 723.6 572 572" xmlns="http://www.w3.org/2000/svg"><path d="M339.917 801.866c9.8 6.1 16.7 13.6 20.8 22.3 6.1 14 12.9 29.2 20.3 45.7 7.4 16.5 14.9 33.2 22.3 50.1s14.6 33.4 21.4 49.4c6.8 16 13 30.7 18.4 44 5.4 13.3 9.7 24.6 12.9 33.9 3.2 9.3 4.8 15.5 4.8 18.4 0 5-.7 9.8-2 14.6-1.3 4.8-3.7 9.2-7.2 13.1-3.5 3.9-8.4 7.1-14.6 9.4-6.3 2.3-14.4 3.5-24.3 3.5-10.5 0-19-1.4-25.6-4.2-6.6-2.8-12-6.3-16.4-10.7-4.4-4.4-8-9-10.9-13.8-2.9-4.8-5.9-9.4-9-13.8-3.1-4.4-6.6-7.9-10.5-10.7-3.9-2.8-9.3-4.2-16-4.2h-28c-8.2 0-14.6 1.4-19.5 4.2-4.8 2.8-8.7 6.3-11.8 10.7-3.1 4.4-5.9 9-8.5 13.8-2.6 4.8-6 9.4-10.1 13.8s-9.4 7.9-16 10.7c-6.6 2.8-15.4 4.2-26.5 4.2-16.3 0-28.3-3.6-35.9-10.9-7.6-7.3-11.4-15.9-11.4-25.8 0-3.8 1.5-10.4 4.6-19.9 3.1-9.5 7.2-20.8 12.5-33.9 5.2-13.1 11.2-27.7 17.9-43.7 6.7-16 13.8-32.6 21.4-49.6 7.6-17.1 15.2-34.1 22.7-51.2 7.6-17.1 14.9-33.5 21.9-49.2 4.1-9 10.9-16.2 20.3-21.4 9.5-5.2 20-7.9 31.7-7.9 10.5-.1 20.5 3 30.3 9.1z" fill="#6D8086"></path><path d="M308.917 1232.566c2.4 0 4.7-1.3 5.8-3.5 0-.1 9.5-17.6 18.9-38.3 4.7-10.4 9.5-21.5 13.1-31.8 1.8-5.2 3.3-10.1 4.4-14.6 1.1-4.6 1.8-8.8 1.8-12.6 0-14.9-5.5-28.2-14.7-37.4-7.7-7.7-18.1-12.4-29.4-12.4-11.3 0-21.7 4.7-29.4 12.4-9.1 9.1-14.7 22.4-14.7 37.4 0 3.9.7 8.1 1.8 12.6 1.9 8 5.2 17.1 8.9 26.5 11.3 28.1 27.5 58.1 27.5 58.3 1.3 2 3.5 3.4 6 3.4z" fill="#D4D7D6"></path></svg>