<svg viewBox="4.511 0.672 177.22 177.22" xmlns="http://www.w3.org/2000/svg"><path d="M136.262 73.757c0-1.994-1.595-3.988-3.988-3.988H57.308c-1.994 0-3.988 1.596-3.988 3.988 0 13.558 1.994 60.212 21.932 82.942.797.797 1.595 1.196 2.791 1.196h33.496c1.196 0 1.994-.399 2.791-1.196 19.938-22.33 21.932-68.985 21.932-82.942zm-29.508 72.574H83.227c-1.196 0-1.994-.399-2.791-1.196-13.558-15.95-15.153-47.851-15.552-59.016 0-1.994 1.595-3.988 3.988-3.988h52.636c1.994 0 3.987 1.595 3.987 3.988 0 11.165-1.993 42.667-15.551 59.016-1.197.797-1.994 1.196-3.19 1.196zm-4.387-84.537s14.356-8.374 5.583-23.526c-5.184-7.975-7.576-14.754-5.583-17.546-5.183 6.38-13.956 13.16-4.386 27.515 3.19 3.588 4.785 11.165 4.386 13.557zm-15.95 1.197s9.57-5.583 3.589-15.95c-3.589-5.185-5.184-9.97-3.589-11.565-3.589 4.387-9.171 8.773-2.791 18.742 1.994 1.994 2.791 7.178 2.791 8.773z" fill="#E37933" stroke-width="4.179"></path><path d="M119.115 109.246c-1.595 10.767-4.785 23.128-11.564 31.104-.797.797-1.595 1.196-2.392 1.196H85.22c-.798 0-1.994-.399-2.393-1.196-4.785-5.982-7.975-13.957-9.969-22.33 0 0 23.128 3.19 36.287-1.596 9.57-3.589 9.97-7.178 9.97-7.178z" fill="#E37933" stroke-width="4.179"></path></svg>