<svg viewBox="-52.125 -37.125 321.75 321.75" xmlns="http://www.w3.org/2000/svg" preserveAspectRatio="xMidYMid"><rect fill="#448CAC" x="182.857" y="48.762" width="24.381" height="12.19" rx="5"></rect><rect fill="#F3346F" y="243.81" width="73.143" height="12.19" rx="5"></rect><rect fill="#915EBB" x="146.286" y="146.286" width="48.762" height="12.19" rx="5"></rect><rect fill="#F3346F" x="73.143" y="146.286" width="60.952" height="12.19" rx="5"></rect><rect fill="#448CAC" y="146.286" width="60.952" height="12.19" rx="5"></rect><rect fill="#915EBB" y="195.048" width="73.143" height="12.19" rx="5"></rect><rect fill="#915EBB" y="97.524" width="73.143" height="12.19" rx="5"></rect><rect fill="#BDBD34" x="60.952" y="24.381" width="134.095" height="12.19" rx="5"></rect><rect fill="#F3346F" y="24.381" width="48.762" height="12.19" rx="5"></rect><rect fill="#BDBD34" x="48.762" y="219.429" width="24.381" height="12.19" rx="5"></rect><rect fill="#448CAC" x="48.762" y="73.143" width="24.381" height="12.19" rx="5"></rect><rect fill="#448CAC" y="219.429" width="36.571" height="12.19" rx="5"></rect><rect fill="#BDBD34" y="73.143" width="36.571" height="12.19" rx="5"></rect><rect fill="#448CAC" x="97.524" y="121.905" width="109.714" height="12.19" rx="5"></rect><rect fill="#BDBD34" x="36.571" y="121.905" width="48.762" height="12.19" rx="5"></rect><rect fill="#F3346F" y="121.905" width="24.381" height="12.19" rx="5"></rect><rect fill="#915EBB" x="109.714" y="48.762" width="60.952" height="12.19" rx="5"></rect><rect fill="#448CAC" y="48.762" width="97.524" height="12.19" rx="5"></rect><rect fill="#BDBD34" x="36.571" y="170.667" width="121.905" height="12.19" rx="5"></rect><rect fill="#915EBB" y="170.667" width="24.381" height="12.19" rx="5"></rect><rect fill="#F3346F" x="146.286" y="73.143" width="73.143" height="12.19" rx="5"></rect><rect fill="#BDBD34" x="146.286" y="97.524" width="73.143" height="12.19" rx="5"></rect><rect fill="#448CAC" width="158.476" height="12.19" rx="5"></rect></svg>