<svg viewBox="46.11 11.61 105.78 105.78" data-name="Layer 1" xmlns="http://www.w3.org/2000/svg"><defs><linearGradient id="a" x1="78.7" y1="-359.32" x2="78.7" y2="-329.03" gradientTransform="matrix(1 0 0 -1 0 -264)" gradientUnits="userSpaceOnUse"><stop offset="0" stop-color="#3d6a06"></stop><stop offset=".16" stop-color="#588710"></stop><stop offset=".33" stop-color="#6d9d18"></stop><stop offset=".51" stop-color="#7bae1e"></stop><stop offset=".72" stop-color="#84b721"></stop><stop offset="1" stop-color="#87ba22"></stop></linearGradient><linearGradient id="c" x1="77.39" y1="-366.2" x2="77.39" y2="-330.49" gradientTransform="matrix(1 0 0 -1 0 -264)" gradientUnits="userSpaceOnUse"><stop offset="0" stop-color="#bbe882"></stop><stop offset=".14" stop-color="#bee988" stop-opacity=".92"></stop><stop offset=".34" stop-color="#c8ec9a" stop-opacity=".8"></stop><stop offset=".58" stop-color="#d8f2b7" stop-opacity=".67"></stop><stop offset=".83" stop-color="#eef9e0" stop-opacity=".53"></stop><stop offset="1" stop-color="#fff" stop-opacity=".43"></stop></linearGradient><linearGradient id="b" x1="78.09" y1="-364.42" x2="78.09" y2="-332.57" gradientTransform="matrix(1 0 0 -1 0 -264)" gradientUnits="userSpaceOnUse"><stop offset="0" stop-color="#48790b"></stop><stop offset=".82" stop-color="#fff" stop-opacity=".43"></stop></linearGradient><linearGradient id="d" x1="75.69" y1="-368.98" x2="75.69" y2="-358.09" gradientTransform="matrix(1 0 0 -1 0 -264)" gradientUnits="userSpaceOnUse"><stop offset="0" stop-color="#5e7814"></stop><stop offset=".51" stop-color="#8aa21f"></stop><stop offset="1" stop-color="#b1c628"></stop></linearGradient><linearGradient id="e" x1="75.32" y1="-367.16" x2="75.49" y2="-358.38" gradientTransform="matrix(1 0 0 -1 0 -264)" gradientUnits="userSpaceOnUse"><stop offset="0" stop-color="#82af10"></stop><stop offset=".82" stop-color="#fff" stop-opacity="0"></stop></linearGradient><linearGradient id="f" x1="82.5" y1="-369.33" x2="82.5" y2="-359.52" gradientTransform="matrix(1 0 0 -1 0 -264)" gradientUnits="userSpaceOnUse"><stop offset="0" stop-color="#5e7814"></stop><stop offset=".14" stop-color="#758e1a"></stop><stop offset=".34" stop-color="#8fa620"></stop><stop offset=".55" stop-color="#a2b824"></stop><stop offset=".77" stop-color="#adc327"></stop><stop offset="1" stop-color="#b1c628"></stop></linearGradient><linearGradient id="g" x1="80.1" y1="-370.07" x2="80.1" y2="-358.96" gradientTransform="matrix(1 0 0 -1 0 -264)" gradientUnits="userSpaceOnUse"><stop offset="0" stop-color="#fff"></stop><stop offset="1" stop-color="#fff" stop-opacity="0"></stop></linearGradient><radialGradient id="i" cx="79" cy="-5253.45" r="6.38" gradientTransform="matrix(1 0 0 -.24 0 -1139.82)" gradientUnits="userSpaceOnUse"><stop offset="0" stop-color="#323232" stop-opacity=".92"></stop><stop offset=".24" stop-color="#272727" stop-opacity=".64"></stop><stop offset=".64" stop-color="#0b0b0b" stop-opacity=".17"></stop><stop offset=".79" stop-opacity="0"></stop></radialGradient><radialGradient id="h" cx="12088.47" cy="-7108.84" r="6.78" gradientTransform="matrix(.18 0 0 -.19 -2047.7 -1222.88)" gradientUnits="userSpaceOnUse"><stop offset="0" stop-color="#323232"></stop><stop offset=".29" stop-color="#252525" stop-opacity=".67"></stop><stop offset=".83" stop-color="#040404" stop-opacity=".07"></stop><stop offset=".89" stop-opacity="0"></stop></radialGradient></defs><path d="M76.65 102.15h4.45c-.27-5.78-2-24.24-4.8-35.71.52 7.87 1.08 34.05.35 35.71z" fill="#8DC149"></path><path d="M76.52 105.53l2.82.12c.07-5.46-1.91-14.9-7.29-18.57 2.74 3.41 4.72 7.56 4.47 18.45z" fill="#8DC149"></path><path d="M81.87 105.71c.09.4-2.81.68-2.91.59s-2.11-13.48 7.33-12.13c-5.12.22-5.51 7.23-4.42 11.54z" fill="#8DC149"></path><circle cx="77.97" cy="99.36" r=".74" fill="#D4D7D6"></circle><circle cx="79.84" cy="99.36" r=".74" fill="#D4D7D6"></circle><path d="M72.68 103.79l1.06 1.81h.58m1.3.79h1.27L75 101.32m8 4.75h.83l.62-3.92m.68 2.89h.71l.34-1.44" fill="#8DC149"></path><path d="M99.16 97.44a237.87 237.87 0 01.45-25 160.07 160.07 0 012.45-19.41c.11-.53.21-1 .21-1a91.08 91.08 0 012.41-9.29c.61-1.91.92-2.87 1.4-4a41 41 0 013.76-7 32.75 32.75 0 013.26-4.35c2.17-2.39 3.91-4.25 6.64-4.74a7.78 7.78 0 013.62.22c3.06.95 4.78 3.62 4.58 3.85s-3.62-4-7-3.23c-1.89.43-3.18 2.29-4.43 4.1a33.65 33.65 0 00-2.31 4.4c-1 2.14-1.55 3.48-1.68 3.82-.33.85-.56 1.54-1 2.84-.38 1.12-.68 2-1 3.07-.89 2.82-1.34 4.22-1.61 5.21s-.62 2.32-1.23 5.5c-.82 4.25-1.44 8.19-1.67 10-.71 5.39-1.41 17.18-.56 32.67" fill="#8DC149"></path><path d="M96.17 102.16l7 .3c.17-13.63-4.77-37.21-18.21-46.38 6.84 8.5 11.79 18.89 11.18 46.08z" fill="#8DC149"></path><path d="M109.52 102.62c.22 1-7 1.68-7.27 1.46S97 70.41 120.55 73.77c-12.77.55-13.75 18.06-11.03 28.85z" fill="#8DC149"></path><path d="M86.58 97.82l2.62 4.52h1.47m3.24 2h3.18l-4.71-12.69m19.92 11.85h2.08l1.53-9.78m1.71 7.21h1.77l.86-3.6" fill="#8DC149"></path><circle cx="99.79" cy="86.74" r="1.86" fill="#D4D7D6"></circle><circle cx="104.45" cy="86.74" r="1.86" fill="#D4D7D6"></circle></svg>